<svg xmlns="http://www.w3.org/2000/svg" viewBox="0 0 218.97 203.47"><g><g><path d="m217.79 118.45-.31-.12c-1.89-.7-3.89-1.42-6-2.15l-.87-.3-2.94-1L122 20.87 118.09.18 116.63 4h-1.85l-1.32-4-2.13 11.35L15.25 115.5q-7 2.38-13.86 5.1l-1.22.48h1.31l49.19.06h.14a119.67 119.67 0 0 1 20-6.81 200.13 200.13 0 0 1 20.72-4.18c1.12-.17 2.24-.31 3.36-.46l1.89 11.49h7.31l-1.87-12.36c9-.91 18.06-1.31 27.11-1.35L127 121.14h7l2.58-13.63 7.66.21c.88 0 1.76.06 2.64.14l2.64.2 5.28.4c7 .38 14 1.46 21 2.29 3.51.36 7 1.09 10.45 1.66l10.42 1.82c3.11.62 6.31 1.36 9.5 2l1.16.23Zm-85.45-42.89 13.88 25.73c-3.06-.34-6.12-.66-9.19-.91Zm-3.43 24.28q-9.82-.54-19.66-.46c-2.1 0-4.19.08-6.29.15l12.91-73.63Zm-34.16 0q-6.8.4-13.58 1.1l19.38-32Zm53.89 1.69-17.53-32.45-3-15.78L162 103.5q-6.66-1.12-13.36-1.93Zm-47.05-38.14-22.93 37.89q-7 .78-13.92 1.9l39.95-56.3ZM164.72 104l-37.53-55.67-2.24-11.88 61.76 72.27q-10.9-2.78-21.99-4.72Zm-59.16-61.82L62 103.63c-2.54.43-5.08.9-7.61 1.4q-7 1.38-14 3.11l67.36-77.49Zm98.28 71.44-.56-.17-3.61-1.12q-2.49-.75-5-1.46l-.23-.06c-1.46-.41-2.91-.82-4.37-1.21L124.2 32.5l-1.49-7.88ZM110.65 15l-2.19 11.71L36.95 109q-9 2.32-17.77 5.19Zm96.01 162.69-3.53-15.76-.06-.24c-.88.21-21.56 5-22.45 6.55-.67 1.14.36 2.88.41 3 .25.32 6.06 7.94 7.44 8.23h.12a7 7 0 0 0 1.73.18c1.83 0 5.76-.35 16.37-1.68v-.25Zm6.6-17.49c-.86-1-2.24-.9-4.46.18h-.09l3.67 16.67v.1h.11c.16 0 4-.2 4.89-1.4a.94.94 0 0 0 .19-.8c-.3-1.48-3.57-13.95-4.31-14.75Zm-28.2 10.45L62.91 191.51"/><path d="m184.67 169.2-107 18.27-15.19 2.59c-1.9.32-1.09 3.22.8 2.89l107-18.27 15.19-2.59c1.9-.32 1.09-3.22-.8-2.89Zm-129.6 26.34-6.47 1.17a2.61 2.61 0 0 1-1.34-.11l-.85-.3a2.61 2.61 0 0 1-.89-4.37l.4-.37a2.61 2.61 0 0 1 1.32-.65l6.76-1.17"/><path d="m57.68 189.11 6.47-1.17a2.61 2.61 0 0 1 1.34.11l.85.3a2.61 2.61 0 0 1 .89 4.37l-.4.37a2.61 2.61 0 0 1-1.32.65l-6.73 1.16m-8.94-1.16L1.48 202m47.96-9.7-48.36 8.25c-1.9.32-1.09 3.22.8 2.89l48.35-8.26c1.9-.32 1.09-3.22-.8-2.89Z"/><g><path d="M38.34 168.23c-.89-1.53-21.57-6.34-22.45-6.55v.22l-3.53 15.76v.25c10.61 1.33 14.54 1.68 16.37 1.68a7 7 0 0 0 1.73-.18h.12c1.38-.29 7.19-7.9 7.45-8.24-.03-.07.97-1.8.31-2.94ZM5.71 160.2c-.73.8-4 13.27-4.33 14.8a.94.94 0 0 0 .19.8c.93 1.2 4.73 1.39 4.89 1.4h.11l3.67-16.68v-.1h-.09c-2.2-1.12-3.58-1.18-4.44-.22Zm28.19 10.45 122.15 20.86"/><path d="m33.5 172.09 107 18.27 15.15 2.64c1.89.32 2.7-2.57.8-2.89l-107-18.27-15.15-2.64c-1.89-.32-2.7 2.57-.8 2.89Zm130.39 23.45 6.47 1.17a2.61 2.61 0 0 0 1.34-.11l.85-.3a2.61 2.61 0 0 0 .89-4.37l-.4-.37a2.61 2.61 0 0 0-1.32-.65l-6.72-1.17"/><path d="m161.29 189.11-6.47-1.17a2.61 2.61 0 0 0-1.34.11l-.85.3a2.61 2.61 0 0 0-.89 4.37l.4.37a2.61 2.61 0 0 0 1.32.65l6.73 1.16m8.94-1.16 48.35 8.26m-48.75-6.81 48.35 8.26c1.89.32 2.7-2.57.8-2.89l-48.35-8.26c-1.89-.32-2.7 2.57-.8 2.89Z"/></g><path d="M145.44 171H73.49m71.95.05-36 .35c-6 .05-12 .17-18 .1s-12-.16-18-.45V171c6-.29 12-.36 18-.45s12 0 18 .1l36 .35ZM91.48 175h35.84m-35.84 0q9-.22 17.92-.35c3-.05 6-.17 9-.1s6 .16 9 .45v.1c-3 .29-6 .36-9 .45s-6 0-9-.1q-9-.13-17.92-.35Z"/><path d="M93.07 191.91h1.86V201h-1.86zm11.02 4.24a2 2 0 0 0 1.17-1.76 2.26 2.26 0 0 0-.93-1.85 4.28 4.28 0 0 0-2.74-.81 4.45 4.45 0 0 0-2.77.77 2.23 2.23 0 0 0-.94 1.85 2.07 2.07 0 0 0 .9 1.74 2.82 2.82 0 0 0-.65.42 2.28 2.28 0 0 0-.91 1.77 2.44 2.44 0 0 0 1.37 2.21 6 6 0 0 0 3 .72 5.24 5.24 0 0 0 3.06-.78 2.64 2.64 0 0 0 .83-.92 2.54 2.54 0 0 0 .29-1.23 2 2 0 0 0-.41-1.23 2.48 2.48 0 0 0-1.27-.9Zm-4.22-2.23a1.81 1.81 0 0 1 1.63-.62 2.82 2.82 0 0 1 1.42.29.86.86 0 0 1 .39 1.19 1.78 1.78 0 0 1-.94.94 5.81 5.81 0 0 1-2-.59 1.44 1.44 0 0 1-.45-.39.73.73 0 0 1-.14-.42.7.7 0 0 1 .08-.4Zm3.83 5.08q-.41.65-2 .63-2.52 0-2.52-1.52a1.43 1.43 0 0 1 .91-1.22 4.94 4.94 0 0 0 .67.21l.46.11 1 .19a4.78 4.78 0 0 1 1.15.33 1.1 1.1 0 0 1 .39.3.74.74 0 0 1 .13.46 1 1 0 0 1-.19.51Zm10.35-2.85a2 2 0 0 0 1.17-1.76 2.26 2.26 0 0 0-.93-1.85 4.28 4.28 0 0 0-2.74-.81 4.45 4.45 0 0 0-2.77.77 2.23 2.23 0 0 0-.94 1.85 2.07 2.07 0 0 0 .9 1.74 2.81 2.81 0 0 0-.65.42 2.28 2.28 0 0 0-.91 1.77 2.44 2.44 0 0 0 1.37 2.21 6 6 0 0 0 3 .72 5.24 5.24 0 0 0 3.06-.78 2.62 2.62 0 0 0 .83-.92 2.53 2.53 0 0 0 .29-1.23 2 2 0 0 0-.41-1.23 2.49 2.49 0 0 0-1.27-.9Zm-4.22-2.23a1.81 1.81 0 0 1 1.63-.62 2.83 2.83 0 0 1 1.43.29.86.86 0 0 1 .39 1.19 1.79 1.79 0 0 1-.94.94 5.82 5.82 0 0 1-2-.59 1.46 1.46 0 0 1-.45-.39.74.74 0 0 1-.14-.42.71.71 0 0 1 .08-.4Zm3.84 5.07q-.41.65-2 .63-2.52 0-2.52-1.52a1.43 1.43 0 0 1 .91-1.22 5 5 0 0 0 .66.21l.46.11 1 .19a4.77 4.77 0 0 1 1.15.33 1.08 1.08 0 0 1 .39.3.74.74 0 0 1 .13.46 1 1 0 0 1-.19.52Zm10.85-5.99a4 4 0 0 0-3.15-1.26 4.36 4.36 0 0 0-2.88 1 3.11 3.11 0 0 0-1.21 2.5 2.75 2.75 0 0 0 .94 2.17 3 3 0 0 0 1.06.59 3.75 3.75 0 0 0 1.17.21 7.06 7.06 0 0 0 .95-.05 4.18 4.18 0 0 0 2.23-.92 3.21 3.21 0 0 1-1.07 1.71 3 3 0 0 1-2 .68 4.17 4.17 0 0 1-2.37-.55l.07 1.68a5.46 5.46 0 0 0 2.2.4 4.84 4.84 0 0 0 3.89-1.6 5.27 5.27 0 0 0 1.22-3.55 4.33 4.33 0 0 0-1.05-3.01Zm-1.83 3.21a3.29 3.29 0 0 1-.81.33 3.62 3.62 0 0 1-.95.12 1.89 1.89 0 0 1-1.34-.44 1.37 1.37 0 0 1-.44-1 1.61 1.61 0 0 1 .67-1.35 2.2 2.2 0 0 1 .72-.37 3 3 0 0 1 .87-.13 2.43 2.43 0 0 1 .81.12 2.22 2.22 0 0 1 1.4 1.65 2 2 0 0 1-.93 1.06Z"/><path d="M43.73 158.14a4 4 0 0 0 .84-.55 3 3 0 0 0 1.12-2.36 3 3 0 0 0-1.22-2.63 6.55 6.55 0 0 0-3.72-.85 26.7 26.7 0 0 0-3.08.15V163H40v-4.32h1.48l2.08 4.36a13.37 13.37 0 0 1 2.73 0 4.19 4.19 0 0 1-.82-1.31Zm-1-1.54a2.11 2.11 0 0 1-.7.29 4.41 4.41 0 0 1-1 .1 7.91 7.91 0 0 1-1-.06v-3.17h.88a4 4 0 0 1 1.82.32 1.29 1.29 0 0 1 .66 1.24 1.5 1.5 0 0 1-.62 1.27Zm13.81-4.85a6.62 6.62 0 0 0-2.59.49 6 6 0 0 0-2 1.31 5.76 5.76 0 0 0-1.26 1.9 6 6 0 0 0-.44 2.29 5.2 5.2 0 0 0 1.76 4 5.88 5.88 0 0 0 1.99 1.07 6.26 6.26 0 0 0 2.14.4 7.75 7.75 0 0 0 1.82-.19 6.22 6.22 0 0 0 2.73-1.43 5.46 5.46 0 0 0 1.86-4.23 5.19 5.19 0 0 0-1.81-4.17 6.2 6.2 0 0 0-4.2-1.44Zm2.5 8.44a3.43 3.43 0 0 1-2.52.94 3.79 3.79 0 0 1-2.7-1 3.29 3.29 0 0 1-.77-1.11 3.56 3.56 0 0 1-.28-1.42 4 4 0 0 1 .92-2.69 3.33 3.33 0 0 1 2.66-1.15 3.44 3.44 0 0 1 2.73 1.13 3.85 3.85 0 0 1 .92 2.63 3.58 3.58 0 0 1-1 2.67Zm19.64-8.26-1.8 7.48-2.1-7.51a6.73 6.73 0 0 1-.92.07h-1.18l-2.06 7.48-2.12-7.51a5.14 5.14 0 0 1-1.06.07h-1.39l3 9.86.17.62q.06.22.07.3a1 1 0 0 1 0 .16.25.25 0 0 1 0 .13h1.5a8.47 8.47 0 0 1 .91 0 1.43 1.43 0 0 1 0-.53q0-.24.45-1.83l1.4-5.15 1.47 5.17.24 1.13q.09.41.13.63v.29a1.28 1.28 0 0 1 0 .15.25.25 0 0 1 0 .13h1.64a8.67 8.67 0 0 1 .91 0 .36.36 0 0 1 0-.17v-.39a14.47 14.47 0 0 1 .52-1.79l2.58-8.76a4.67 4.67 0 0 1-1.06.07q-.76-.03-1.3-.1Zm8.23.07h-1.08v11h2.48v-11.11a3.53 3.53 0 0 1-.76.07Zm14.15.52v6.36L96.31 152h-1.8v10.43a3.26 3.26 0 0 1-.05.61h2.34v-6.65l4.68 6.65h1.86v-10.35a5.42 5.42 0 0 1 0-.73H101a1.07 1.07 0 0 1 .06.56Zm16.39 3.93h-1.06a15.39 15.39 0 0 1-2-.07l.08 2.17c.05-.1.39-.15 1-.15h1.16v1.38a.94.94 0 0 1-.18.56 2.55 2.55 0 0 1-2.19.78 3.27 3.27 0 0 1-2.4-.92 3.33 3.33 0 0 1-.93-2.46 3.85 3.85 0 0 1 1.06-2.83 3.38 3.38 0 0 1 1.22-.81 4.62 4.62 0 0 1 1.69-.28 5.53 5.53 0 0 1 1.84.31 2.28 2.28 0 0 1 1.26.87h.07l.14-2.45a6.3 6.3 0 0 0-3.31-.75 6.47 6.47 0 0 0-4.91 1.87 5.75 5.75 0 0 0-1.6 4.15 5.11 5.11 0 0 0 1.57 3.85 6 6 0 0 0 4.35 1.58 5.83 5.83 0 0 0 3.32-.9 2.45 2.45 0 0 0 1.31-2v-2.65a3.25 3.25 0 0 1 .17-1.35 8.54 8.54 0 0 1-1.66.1Zm23.24 3.96a5.08 5.08 0 0 1-2.76.67 3.55 3.55 0 0 1-2.42-.8 3.63 3.63 0 0 1-1.1-2.9 3.58 3.58 0 0 1 .87-2.58 3 3 0 0 1 1.15-.72 4.16 4.16 0 0 1 1.43-.25 8 8 0 0 1 1.2.07 3 3 0 0 1 2.12.95v-2.54a6.87 6.87 0 0 0-2.86-.54 6.73 6.73 0 0 0-4.79 1.55 5.54 5.54 0 0 0-1.63 4.22 5.6 5.6 0 0 0 1.49 4.07 5.67 5.67 0 0 0 4.29 1.61 5.91 5.91 0 0 0 3.69-1.05v-2.32a2.39 2.39 0 0 1-.68.56Zm8.1.59v-9.08h-1.57a5 5 0 0 1-.89 0v11.14h2.6q2.07 0 2.95.06V163s0-.72.06-2h-1.29Zm15.62-9h-.92v6.72a3.73 3.73 0 0 1-.17 1.21 1.86 1.86 0 0 1-1.91 1.36 2.45 2.45 0 0 1-1.61-.53 2 2 0 0 1-.69-1.63v-7.16a7.4 7.4 0 0 1-1.11.03h-1.4v7a3.89 3.89 0 0 0 1.44 3.25 5.35 5.35 0 0 0 3.38 1 4.49 4.49 0 0 0 3.17-1.17 4.26 4.26 0 0 0 1.33-3.28v-6.86a5 5 0 0 1-.79.07Zm15.49 5.64a3 3 0 0 0-1.69-1.2 2.43 2.43 0 0 0 .92-1.95 2.27 2.27 0 0 0-1-1.91 4.07 4.07 0 0 0-1.34-.61 8.15 8.15 0 0 0-2.1-.22 21 21 0 0 0-3 .26V163a22 22 0 0 0 3.25.26 10.64 10.64 0 0 0 2.58-.27 4.86 4.86 0 0 0 1.71-.75 2.88 2.88 0 0 0 1-1.17 4 4 0 0 0 .3-1.64 3 3 0 0 0-.63-1.79Zm-5.9-4.09a10.85 10.85 0 0 1 1.14 0q1.61 0 1.61 1.27a1.32 1.32 0 0 1-.32.95 1.49 1.49 0 0 1-.56.34 2.68 2.68 0 0 1-.93.14 6.28 6.28 0 0 1-.94-.06Zm3.42 7.3a2.79 2.79 0 0 1-.88.42 4.33 4.33 0 0 1-1.21.15 5.67 5.67 0 0 1-1.32-.15V158a8.57 8.57 0 0 1 1.33-.09q2.81 0 2.81 1.54a1.68 1.68 0 0 1-.71 1.39Z"/><path d="M10.26 135.49a12.1 12.1 0 0 0-2.7-.63 5 5 0 0 1-2.32-.77 1.58 1.58 0 0 1-.53-1.31 1.22 1.22 0 0 1 .6-1.06 2.27 2.27 0 0 1 .71-.3 5.51 5.51 0 0 1 2.29 0 4.26 4.26 0 0 1 2.94 1.72l.05.08.26-.08.24-3.79h-.06a8.46 8.46 0 0 0-4.59-1.24 6 6 0 0 0-4.15 1.4 5.3 5.3 0 0 0-.38 7 5.06 5.06 0 0 0 1.71 1.13 9.35 9.35 0 0 0 2.67.66 5.23 5.23 0 0 1 2.28.61 1.28 1.28 0 0 1 .47.51 1.81 1.81 0 0 1 .14.77 1.52 1.52 0 0 1-.24.84c-.49.76-1.53 1.14-3.08 1.14a5.06 5.06 0 0 1-4.77-2.58l-.07-.13-.21.16-.14 4.25h.05a5.83 5.83 0 0 0 1.2.64 11.18 11.18 0 0 0 4.17.82 7.16 7.16 0 0 0 4.36-1.28 5 5 0 0 0 2-4.29 4.31 4.31 0 0 0-1.26-3.3 5.27 5.27 0 0 0-1.64-.97Zm25.22-7.09h-1c-.33 0-.74 0-1.22-.06h-.14v10.14a6 6 0 0 1-.22 1.77 2.39 2.39 0 0 1-2.43 1.94 3 3 0 0 1-2.07-.76 3.05 3.05 0 0 1-.88-2.33v-10.82h-.15a16.35 16.35 0 0 1-3.3 0h-.13v10.6a6.22 6.22 0 0 0 2 4.94 6.81 6.81 0 0 0 4.6 1.52 5.81 5.81 0 0 0 4.33-1.78 6.86 6.86 0 0 0 1.82-5v-10.29h-.15a5.85 5.85 0 0 1-1.06.13Zm21.62.2s.09.19.09.76v9L51 128.4h-2.55V144a5.32 5.32 0 0 1-.07.89v.15h3.4v-9.59l6 9.53v.06h2.72v-15.43a9 9 0 0 1 .06-1.07v-.14H57Zm23.14.08a11.73 11.73 0 0 0-3.83-.59 30.3 30.3 0 0 0-3.69.2h-.11V145h.1a20 20 0 0 0 3.68.32 9.45 9.45 0 0 0 6.46-2.07c1.73-1.53 2.61-3.81 2.61-6.75a8.13 8.13 0 0 0-2.34-6.18 7.85 7.85 0 0 0-2.88-1.64Zm.32 12.32a3.92 3.92 0 0 1-1.56 1 5 5 0 0 1-1.64.31 8.25 8.25 0 0 1-1.43-.13v-10.82h.57a7.69 7.69 0 0 1 2.35.33c2 .65 3 2.44 3 5.32a5.45 5.45 0 0 1-1.29 3.99Zm25.12.73a2.29 2.29 0 0 1-1 .13h-4.74v-4.2h2.85a14.58 14.58 0 0 1 1.47.06h.14v-3.35h-.16a8.51 8.51 0 0 1-1.55.07h-2.75v-2.9h3.65a6.43 6.43 0 0 1 1.74.18h.09l.1-.16v-.05a1.24 1.24 0 0 1 0-.27 25.27 25.27 0 0 1 .13-2.89v-.14h-.15c-1.78.07-3.6.1-5.42.1h-3.5v16.78h9.22l.13-3.32-.19-.05Zm21.79 1.27-2.4-5.21a5.37 5.37 0 0 0 1.05-.78 4.86 4.86 0 0 0 1.54-3.6 4.77 4.77 0 0 0-1.68-4 8.21 8.21 0 0 0-5-1.29 32.36 32.36 0 0 0-4.14.22h-.11v16.75h3.43v-6.41c.47 0 .83.05 1.08.05h.69l2.75 6.4v.08h.09a16.13 16.13 0 0 1 3.62 0h.07l.2-.21-.11-.08a5.91 5.91 0 0 1-1.08-1.92Zm-3.11-9.52a2.19 2.19 0 0 1-.8 1.86 2.54 2.54 0 0 1-.89.42 5.21 5.21 0 0 1-1.3.14 9.73 9.73 0 0 1-1.25-.07v-4.5h1a4.83 4.83 0 0 1 2.37.46 1.84 1.84 0 0 1 .87 1.66Zm20.35 8.38h-2.36v-13.52h-2.23a5.57 5.57 0 0 1-1.16-.07h-.16v16.88h.14a22.75 22.75 0 0 1 2.32-.07h1.14c1.87 0 3.15 0 3.93.09h.13v-.26c0-.08 0-1.2.08-3v-.14h-.14a15.71 15.71 0 0 1-1.69.09Zm19.16-13.2a.21.21 0 0 1 0-.08v-.08l-.06-.13h-3.54l-.05.12a1 1 0 0 1 0 .17 6.39 6.39 0 0 1-.34 1.14l-5.27 15.22h1.12c.91 0 1.71 0 2.4.1h.1l1.13-3.67h5.23l1.13 3.56h3.85l-5.38-15.26a5.3 5.3 0 0 1-.32-1.09Zm-.26 9.65h-3.23l1.59-5.2Zm24.29-9.71s.09.19.09.76v9l-6.12-9.93v-.06h-2.59V144a5.32 5.32 0 0 1-.07.89v.15h3.4v-9.59l6 9.53v.06h2.69v-15.43a9.08 9.08 0 0 1 .06-1.07v-.14h-3.63Zm26.01 1.78a7.82 7.82 0 0 0-2.88-1.7 11.74 11.74 0 0 0-3.83-.59 30.31 30.31 0 0 0-3.69.2h-.11V145h.1a20 20 0 0 0 3.68.32 9.44 9.44 0 0 0 6.46-2.07c1.73-1.53 2.61-3.81 2.61-6.75a8.13 8.13 0 0 0-2.34-6.12ZM211.35 141a3.92 3.92 0 0 1-1.51 1 5 5 0 0 1-1.64.31 8.22 8.22 0 0 1-1.43-.13v-10.82h.57a7.69 7.69 0 0 1 2.35.33c2 .65 3 2.44 3 5.32a5.44 5.44 0 0 1-1.34 3.99Z"/></g></g></svg>