<svg xmlns="http://www.w3.org/2000/svg" viewBox="0 0 217.62 121.15"><g data-name="Layer 2"><path d="M217.31 118.33c-1.89-.7-3.89-1.42-6-2.15l-.87-.3-2.94-1-85.69-94-3.89-20.7L116.46 4h-1.85l-1.32-4-2.13 11.35L15.08 115.5q-7 2.38-13.86 5.1l-1.22.48h1.31l49.19.06h.14a119.67 119.67 0 0 1 20-6.81 200.13 200.13 0 0 1 20.72-4.18c1.12-.17 2.24-.31 3.36-.46l1.89 11.49h7.31l-1.92-12.4c9-.91 18.06-1.31 27.11-1.35l-2.33 13.71h7.06l2.58-13.63 7.66.21c.88 0 1.76.06 2.64.14l2.64.2 5.28.4c7 .38 14 1.46 21 2.29 3.51.36 7 1.09 10.45 1.66l10.42 1.82c3.11.62 6.31 1.36 9.5 2l1.16.23 10.42 2ZM19 114.2 110.47 15l-2.19 11.71L36.78 109q-8.97 2.33-17.78 5.2Zm35.18-9.2q-7 1.38-14 3.11l67.36-77.49-2.16 11.54-43.6 61.44c-2.53.46-5.07.92-7.6 1.4Zm40.4-5.14q-6.8.4-13.58 1.1l19.38-32Zm6.84-36.49-22.93 37.91q-7 .78-13.92 1.9l39.95-56.3Zm7.66 36c-2.1 0-4.19.08-6.29.15L115.7 25.9l13 73.94q-9.78-.54-19.62-.47Zm27.78 1-4.69-24.82L146 101.29c-3-.34-6.07-.66-9.14-.91Zm11.62 1.19-17.54-32.48L128 53.3l33.87 50.21q-6.7-1.13-13.4-1.94Zm16.07 2.44L127 48.33l-2.24-11.88 61.76 72.27q-10.89-2.78-21.97-4.72Zm38.56 9.49-3.61-1.12q-2.49-.75-5-1.46l-.23-.06c-1.46-.41-2.91-.82-4.37-1.21L124 32.5l-1.49-7.88 81.13 89Z" data-name="Black Logo"/></g></svg>